<svg width="22" height="21" viewBox="0 0 22 21" fill="none" xmlns="http://www.w3.org/2000/svg">
<path d="M7.52399 16.5867C7.52399 16.6714 7.42661 16.7391 7.30383 16.7391C7.16411 16.7518 7.06673 16.6841 7.06673 16.5867C7.06673 16.502 7.16411 16.4343 7.2869 16.4343C7.41391 16.4216 7.52399 16.4893 7.52399 16.5867ZM6.20726 16.3962C6.17762 16.4809 6.2623 16.5782 6.38931 16.6036C6.4994 16.646 6.62641 16.6036 6.65181 16.519C6.67722 16.4343 6.59677 16.3369 6.46976 16.2988C6.35968 16.2692 6.2369 16.3115 6.20726 16.3962ZM8.07863 16.3242C7.95585 16.3538 7.87117 16.4343 7.88387 16.5317C7.89657 16.6163 8.00665 16.6714 8.13367 16.6417C8.25645 16.6121 8.34113 16.5317 8.32843 16.447C8.31573 16.3665 8.20141 16.3115 8.07863 16.3242ZM10.8645 0.100006C4.99214 0.100006 0.5 4.55827 0.5 10.4307C0.5 15.126 3.45524 19.144 7.67641 20.5581C8.21835 20.6555 8.40887 20.321 8.40887 20.0458C8.40887 19.7833 8.39617 18.3353 8.39617 17.4462C8.39617 17.4462 5.43246 18.0813 4.81008 16.1845C4.81008 16.1845 4.32742 14.9524 3.63306 14.6349C3.63306 14.6349 2.66351 13.9702 3.70081 13.9829C3.70081 13.9829 4.75504 14.0675 5.33508 15.0752C6.2623 16.7095 7.81613 16.2395 8.42157 15.9601C8.51895 15.2827 8.79415 14.8127 9.09899 14.5333C6.73226 14.2708 4.34436 13.9278 4.34436 9.85485C4.34436 8.69053 4.66613 8.10626 5.34355 7.3611C5.23347 7.08589 4.87359 5.95122 5.45363 4.4863C6.33851 4.2111 8.375 5.62944 8.375 5.62944C9.22177 5.39235 10.1321 5.26956 11.0339 5.26956C11.9357 5.26956 12.846 5.39235 13.6927 5.62944C13.6927 5.62944 15.7292 4.20686 16.6141 4.4863C17.1942 5.95545 16.8343 7.08589 16.7242 7.3611C17.4016 8.11049 17.8165 8.69477 17.8165 9.85485C17.8165 13.9405 15.3228 14.2665 12.956 14.5333C13.3456 14.8678 13.6758 15.5028 13.6758 16.4978C13.6758 17.9246 13.6631 19.6901 13.6631 20.0373C13.6631 20.3125 13.8579 20.647 14.3956 20.5496C18.6294 19.144 21.5 15.126 21.5 10.4307C21.5 4.55827 16.7369 0.100006 10.8645 0.100006ZM4.61532 14.7026C4.56028 14.745 4.57298 14.8423 4.64496 14.9228C4.7127 14.9905 4.81008 15.0202 4.86512 14.9651C4.92016 14.9228 4.90746 14.8254 4.83548 14.745C4.76774 14.6772 4.67036 14.6476 4.61532 14.7026ZM4.15806 14.3597C4.12843 14.4147 4.17077 14.4825 4.25544 14.5248C4.32319 14.5671 4.40786 14.5544 4.4375 14.4952C4.46714 14.4401 4.4248 14.3724 4.34012 14.33C4.25544 14.3046 4.1877 14.3173 4.15806 14.3597ZM5.52984 15.8669C5.4621 15.922 5.4875 16.049 5.58488 16.1294C5.68226 16.2268 5.80504 16.2395 5.86008 16.1718C5.91512 16.1167 5.88972 15.9897 5.80504 15.9093C5.7119 15.8119 5.58488 15.7992 5.52984 15.8669ZM5.04718 15.2446C4.97944 15.2869 4.97944 15.397 5.04718 15.4944C5.11492 15.5917 5.22923 15.6341 5.28427 15.5917C5.35202 15.5367 5.35202 15.4266 5.28427 15.3292C5.225 15.2319 5.11492 15.1895 5.04718 15.2446Z" fill="white"/>
</svg>
