<svg width="22" height="22" viewBox="0 0 22 22" fill="none" xmlns="http://www.w3.org/2000/svg">
<path d="M5.20062 21.0995H0.846875V7.07922H5.20062V21.0995ZM3.02141 5.16672C1.62922 5.16672 0.5 4.0136 0.5 2.62141C0.5 1.95269 0.765647 1.31136 1.2385 0.838509C1.71136 0.365653 2.35269 0.100006 3.02141 0.100006C3.69012 0.100006 4.33145 0.365653 4.80431 0.838509C5.27716 1.31136 5.54281 1.95269 5.54281 2.62141C5.54281 4.0136 4.41313 5.16672 3.02141 5.16672ZM21.4953 21.0995H17.1509V14.2745C17.1509 12.648 17.1181 10.562 14.8873 10.562C12.6237 10.562 12.2769 12.3292 12.2769 14.1573V21.0995H7.92781V7.07922H12.1034V8.99172H12.1644C12.7456 7.89016 14.1655 6.72766 16.2838 6.72766C20.69 6.72766 21.5 9.62922 21.5 13.398V21.0995H21.4953Z" fill="white"/>
</svg>
